%TF.GenerationSoftware,KiCad,Pcbnew,9.0.7*%
%TF.CreationDate,2026-03-03T20:00:45+01:00*%
%TF.ProjectId,Linear_Voltage_Regulator_5V,4c696e65-6172-45f5-966f-6c746167655f,rev?*%
%TF.SameCoordinates,Original*%
%TF.FileFunction,Copper,L1,Top*%
%TF.FilePolarity,Positive*%
%FSLAX46Y46*%
G04 Gerber Fmt 4.6, Leading zero omitted, Abs format (unit mm)*
G04 Created by KiCad (PCBNEW 9.0.7) date 2026-03-03 20:00:45*
%MOMM*%
%LPD*%
G01*
G04 APERTURE LIST*
G04 Aperture macros list*
%AMRoundRect*
0 Rectangle with rounded corners*
0 $1 Rounding radius*
0 $2 $3 $4 $5 $6 $7 $8 $9 X,Y pos of 4 corners*
0 Add a 4 corners polygon primitive as box body*
4,1,4,$2,$3,$4,$5,$6,$7,$8,$9,$2,$3,0*
0 Add four circle primitives for the rounded corners*
1,1,$1+$1,$2,$3*
1,1,$1+$1,$4,$5*
1,1,$1+$1,$6,$7*
1,1,$1+$1,$8,$9*
0 Add four rect primitives between the rounded corners*
20,1,$1+$1,$2,$3,$4,$5,0*
20,1,$1+$1,$4,$5,$6,$7,0*
20,1,$1+$1,$6,$7,$8,$9,0*
20,1,$1+$1,$8,$9,$2,$3,0*%
G04 Aperture macros list end*
%TA.AperFunction,ComponentPad*%
%ADD10RoundRect,0.250000X-0.550000X0.550000X-0.550000X-0.550000X0.550000X-0.550000X0.550000X0.550000X0*%
%TD*%
%TA.AperFunction,ComponentPad*%
%ADD11C,1.600000*%
%TD*%
%TA.AperFunction,ComponentPad*%
%ADD12R,1.800000X1.800000*%
%TD*%
%TA.AperFunction,ComponentPad*%
%ADD13C,1.800000*%
%TD*%
%TA.AperFunction,ComponentPad*%
%ADD14R,1.700000X1.700000*%
%TD*%
%TA.AperFunction,ComponentPad*%
%ADD15C,1.700000*%
%TD*%
%TA.AperFunction,ComponentPad*%
%ADD16R,1.905000X2.000000*%
%TD*%
%TA.AperFunction,ComponentPad*%
%ADD17O,1.905000X2.000000*%
%TD*%
%TA.AperFunction,Conductor*%
%ADD18C,1.500000*%
%TD*%
%TA.AperFunction,Conductor*%
%ADD19C,0.500000*%
%TD*%
%TA.AperFunction,Conductor*%
%ADD20C,0.200000*%
%TD*%
G04 APERTURE END LIST*
D10*
%TO.P,C3,1*%
%TO.N,+5V*%
X136294888Y-90000000D03*
D11*
%TO.P,C3,2*%
%TO.N,GND*%
X136294888Y-92500000D03*
%TD*%
D10*
%TO.P,C1,1*%
%TO.N,VCC*%
X82847349Y-90000000D03*
D11*
%TO.P,C1,2*%
%TO.N,GND*%
X82847349Y-93500000D03*
%TD*%
D12*
%TO.P,R2,1*%
%TO.N,Net-(R1-Pad2)*%
X160000000Y-110000000D03*
D13*
%TO.P,R2,2*%
%TO.N,GND*%
X162540000Y-110000000D03*
%TD*%
D14*
%TO.P,J2,1,Pin_1*%
%TO.N,+5V*%
X162500000Y-90000000D03*
D15*
%TO.P,J2,2,Pin_2*%
%TO.N,GND*%
X162500000Y-92540000D03*
%TD*%
D16*
%TO.P,U1,1,IN*%
%TO.N,VCC*%
X101960000Y-89950000D03*
D17*
%TO.P,U1,2,GND*%
%TO.N,GND*%
X104500000Y-89950000D03*
%TO.P,U1,3,OUT*%
%TO.N,+5V*%
X107040000Y-89950000D03*
%TD*%
D14*
%TO.P,J1,1,Pin_1*%
%TO.N,VCC*%
X69000000Y-90000000D03*
D15*
%TO.P,J1,2,Pin_2*%
%TO.N,GND*%
X69000000Y-92540000D03*
%TD*%
D11*
%TO.P,R1,1*%
%TO.N,+5V*%
X136500000Y-99920000D03*
%TO.P,R1,2*%
%TO.N,Net-(R1-Pad2)*%
X136500000Y-110080000D03*
%TD*%
%TO.P,C2,1*%
%TO.N,VCC*%
X100000000Y-104500000D03*
%TO.P,C2,2*%
%TO.N,GND*%
X105000000Y-104500000D03*
%TD*%
D18*
%TO.N,+5V*%
X162500000Y-90000000D02*
X136294888Y-90000000D01*
X136294888Y-90000000D02*
X120000000Y-90000000D01*
X107000000Y-90000000D02*
X120000000Y-90000000D01*
X107040000Y-89960000D02*
X107000000Y-90000000D01*
X107040000Y-89950000D02*
X107040000Y-89960000D01*
D19*
%TO.N,VCC*%
X75000000Y-103000000D02*
X75000000Y-90000000D01*
D18*
X75000000Y-90000000D02*
X95000000Y-90000000D01*
D19*
X76500000Y-104500000D02*
X75000000Y-103000000D01*
X100000000Y-104500000D02*
X76500000Y-104500000D01*
D20*
X83000000Y-90000000D02*
X83050000Y-89950000D01*
D18*
X95000000Y-90000000D02*
X101910000Y-90000000D01*
X101910000Y-90000000D02*
X101960000Y-89950000D01*
X69000000Y-90000000D02*
X75000000Y-90000000D01*
D20*
X82847349Y-90000000D02*
X83000000Y-90000000D01*
D19*
%TO.N,+5V*%
X121000000Y-100000000D02*
X120000000Y-99000000D01*
X136500000Y-99920000D02*
X136080000Y-99920000D01*
X136000000Y-100000000D02*
X121000000Y-100000000D01*
X120000000Y-99000000D02*
X120000000Y-90000000D01*
X136080000Y-99920000D02*
X136000000Y-100000000D01*
%TO.N,Net-(R1-Pad2)*%
X159920000Y-110080000D02*
X160000000Y-110000000D01*
X136500000Y-110080000D02*
X159920000Y-110080000D01*
%TD*%
%TA.AperFunction,Conductor*%
%TO.N,GND*%
G36*
X205942539Y-83520185D02*
G01*
X205988294Y-83572989D01*
X205999500Y-83624500D01*
X205999500Y-127375500D01*
X205979815Y-127442539D01*
X205927011Y-127488294D01*
X205875500Y-127499500D01*
X62124500Y-127499500D01*
X62057461Y-127479815D01*
X62011706Y-127427011D01*
X62000500Y-127375500D01*
X62000500Y-109977648D01*
X135199500Y-109977648D01*
X135199500Y-110182351D01*
X135231522Y-110384534D01*
X135294781Y-110579223D01*
X135387715Y-110761613D01*
X135508028Y-110927213D01*
X135652786Y-111071971D01*
X135807749Y-111184556D01*
X135818390Y-111192287D01*
X135934607Y-111251503D01*
X136000776Y-111285218D01*
X136000778Y-111285218D01*
X136000781Y-111285220D01*
X136038366Y-111297432D01*
X136195465Y-111348477D01*
X136296557Y-111364488D01*
X136397648Y-111380500D01*
X136397649Y-111380500D01*
X136602351Y-111380500D01*
X136602352Y-111380500D01*
X136804534Y-111348477D01*
X136999219Y-111285220D01*
X137181610Y-111192287D01*
X137274590Y-111124732D01*
X137347213Y-111071971D01*
X137347215Y-111071968D01*
X137347219Y-111071966D01*
X137491966Y-110927219D01*
X137509570Y-110902989D01*
X137525100Y-110881615D01*
X137580429Y-110838949D01*
X137625418Y-110830500D01*
X158475678Y-110830500D01*
X158542717Y-110850185D01*
X158588472Y-110902989D01*
X158598702Y-110944618D01*
X158599146Y-110944571D01*
X158605908Y-111007483D01*
X158656202Y-111142328D01*
X158656206Y-111142335D01*
X158742452Y-111257544D01*
X158742455Y-111257547D01*
X158857664Y-111343793D01*
X158857671Y-111343797D01*
X158992517Y-111394091D01*
X158992516Y-111394091D01*
X158999444Y-111394835D01*
X159052127Y-111400500D01*
X160947872Y-111400499D01*
X161007483Y-111394091D01*
X161142331Y-111343796D01*
X161257546Y-111257546D01*
X161343796Y-111142331D01*
X161370039Y-111071971D01*
X161374327Y-111060474D01*
X161379883Y-111045575D01*
X161394091Y-111007483D01*
X161400500Y-110947873D01*
X161400499Y-110837304D01*
X161420183Y-110770268D01*
X161436818Y-110749626D01*
X162097861Y-110088584D01*
X162120667Y-110173694D01*
X162179910Y-110276306D01*
X162263694Y-110360090D01*
X162366306Y-110419333D01*
X162451414Y-110442137D01*
X161742485Y-111151065D01*
X161742485Y-111151066D01*
X161806243Y-111197388D01*
X162002589Y-111297432D01*
X162212164Y-111365526D01*
X162429819Y-111400000D01*
X162650181Y-111400000D01*
X162867835Y-111365526D01*
X163077410Y-111297432D01*
X163273760Y-111197386D01*
X163337513Y-111151066D01*
X163337514Y-111151066D01*
X162628585Y-110442138D01*
X162713694Y-110419333D01*
X162816306Y-110360090D01*
X162900090Y-110276306D01*
X162959333Y-110173694D01*
X162982137Y-110088585D01*
X163691066Y-110797514D01*
X163691066Y-110797513D01*
X163737386Y-110733760D01*
X163837432Y-110537410D01*
X163905526Y-110327835D01*
X163940000Y-110110181D01*
X163940000Y-109889818D01*
X163905526Y-109672164D01*
X163837432Y-109462589D01*
X163737388Y-109266243D01*
X163691066Y-109202485D01*
X163691065Y-109202485D01*
X162982137Y-109911413D01*
X162959333Y-109826306D01*
X162900090Y-109723694D01*
X162816306Y-109639910D01*
X162713694Y-109580667D01*
X162628583Y-109557861D01*
X163337513Y-108848932D01*
X163273756Y-108802611D01*
X163077410Y-108702567D01*
X162867835Y-108634473D01*
X162650181Y-108600000D01*
X162429819Y-108600000D01*
X162212164Y-108634473D01*
X162002589Y-108702567D01*
X161806233Y-108802616D01*
X161742485Y-108848931D01*
X161742485Y-108848932D01*
X162451414Y-109557861D01*
X162366306Y-109580667D01*
X162263694Y-109639910D01*
X162179910Y-109723694D01*
X162120667Y-109826306D01*
X162097861Y-109911414D01*
X161436818Y-109250371D01*
X161403333Y-109189048D01*
X161400499Y-109162690D01*
X161400499Y-109052129D01*
X161400498Y-109052123D01*
X161400497Y-109052116D01*
X161394091Y-108992517D01*
X161384840Y-108967715D01*
X161374326Y-108939524D01*
X161343797Y-108857671D01*
X161343793Y-108857664D01*
X161257547Y-108742455D01*
X161257544Y-108742452D01*
X161142335Y-108656206D01*
X161142328Y-108656202D01*
X161007482Y-108605908D01*
X161007483Y-108605908D01*
X160947883Y-108599501D01*
X160947881Y-108599500D01*
X160947873Y-108599500D01*
X160947864Y-108599500D01*
X159052129Y-108599500D01*
X159052123Y-108599501D01*
X158992516Y-108605908D01*
X158857671Y-108656202D01*
X158857664Y-108656206D01*
X158742455Y-108742452D01*
X158742452Y-108742455D01*
X158656206Y-108857664D01*
X158656202Y-108857671D01*
X158605908Y-108992517D01*
X158599501Y-109052116D01*
X158599501Y-109052123D01*
X158599500Y-109052135D01*
X158599500Y-109205500D01*
X158579815Y-109272539D01*
X158527011Y-109318294D01*
X158475500Y-109329500D01*
X137625418Y-109329500D01*
X137558379Y-109309815D01*
X137525100Y-109278385D01*
X137491971Y-109232787D01*
X137491967Y-109232782D01*
X137347213Y-109088028D01*
X137181613Y-108967715D01*
X137181612Y-108967714D01*
X137181610Y-108967713D01*
X137124653Y-108938691D01*
X136999223Y-108874781D01*
X136804534Y-108811522D01*
X136629995Y-108783878D01*
X136602352Y-108779500D01*
X136397648Y-108779500D01*
X136373329Y-108783351D01*
X136195465Y-108811522D01*
X136000776Y-108874781D01*
X135818386Y-108967715D01*
X135652786Y-109088028D01*
X135508028Y-109232786D01*
X135387715Y-109398386D01*
X135294781Y-109580776D01*
X135231522Y-109775465D01*
X135199500Y-109977648D01*
X62000500Y-109977648D01*
X62000500Y-89102135D01*
X67649500Y-89102135D01*
X67649500Y-90897870D01*
X67649501Y-90897876D01*
X67655908Y-90957483D01*
X67706202Y-91092328D01*
X67706206Y-91092335D01*
X67792452Y-91207544D01*
X67792455Y-91207547D01*
X67907664Y-91293793D01*
X67907671Y-91293797D01*
X67925643Y-91300500D01*
X68042517Y-91344091D01*
X68102127Y-91350500D01*
X68112685Y-91350499D01*
X68179723Y-91370179D01*
X68200372Y-91386818D01*
X68870591Y-92057037D01*
X68807007Y-92074075D01*
X68692993Y-92139901D01*
X68599901Y-92232993D01*
X68534075Y-92347007D01*
X68517037Y-92410591D01*
X67884728Y-91778282D01*
X67884727Y-91778282D01*
X67845380Y-91832439D01*
X67748904Y-92021782D01*
X67683242Y-92223869D01*
X67683242Y-92223872D01*
X67650000Y-92433753D01*
X67650000Y-92646246D01*
X67683242Y-92856127D01*
X67683242Y-92856130D01*
X67748904Y-93058217D01*
X67845375Y-93247550D01*
X67884728Y-93301716D01*
X68517037Y-92669408D01*
X68534075Y-92732993D01*
X68599901Y-92847007D01*
X68692993Y-92940099D01*
X68807007Y-93005925D01*
X68870590Y-93022962D01*
X68238282Y-93655269D01*
X68238282Y-93655270D01*
X68292449Y-93694624D01*
X68481782Y-93791095D01*
X68683870Y-93856757D01*
X68893754Y-93890000D01*
X69106246Y-93890000D01*
X69316127Y-93856757D01*
X69316130Y-93856757D01*
X69518217Y-93791095D01*
X69707554Y-93694622D01*
X69761716Y-93655270D01*
X69761717Y-93655270D01*
X69129408Y-93022962D01*
X69192993Y-93005925D01*
X69307007Y-92940099D01*
X69400099Y-92847007D01*
X69465925Y-92732993D01*
X69482962Y-92669408D01*
X70115270Y-93301717D01*
X70115270Y-93301716D01*
X70154622Y-93247554D01*
X70251095Y-93058217D01*
X70316757Y-92856130D01*
X70316757Y-92856127D01*
X70350000Y-92646246D01*
X70350000Y-92433753D01*
X70316757Y-92223872D01*
X70316757Y-92223869D01*
X70251095Y-92021782D01*
X70154624Y-91832449D01*
X70115270Y-91778282D01*
X70115269Y-91778282D01*
X69482962Y-92410590D01*
X69465925Y-92347007D01*
X69400099Y-92232993D01*
X69307007Y-92139901D01*
X69192993Y-92074075D01*
X69129409Y-92057037D01*
X69799627Y-91386818D01*
X69860950Y-91353333D01*
X69887307Y-91350499D01*
X69897872Y-91350499D01*
X69957483Y-91344091D01*
X70092331Y-91293796D01*
X70117128Y-91275233D01*
X70182592Y-91250816D01*
X70191439Y-91250500D01*
X74125500Y-91250500D01*
X74192539Y-91270185D01*
X74238294Y-91322989D01*
X74249500Y-91374500D01*
X74249500Y-103073918D01*
X74249500Y-103073920D01*
X74249499Y-103073920D01*
X74278340Y-103218907D01*
X74278343Y-103218917D01*
X74334914Y-103355492D01*
X74334915Y-103355494D01*
X74334916Y-103355495D01*
X74356733Y-103388147D01*
X74367812Y-103404727D01*
X74367813Y-103404730D01*
X74417046Y-103478414D01*
X74417052Y-103478421D01*
X75593027Y-104654394D01*
X75917048Y-104978415D01*
X75917049Y-104978416D01*
X76021584Y-105082951D01*
X76021585Y-105082952D01*
X76144498Y-105165080D01*
X76144511Y-105165087D01*
X76281082Y-105221656D01*
X76281087Y-105221658D01*
X76281091Y-105221658D01*
X76281092Y-105221659D01*
X76426079Y-105250500D01*
X76426082Y-105250500D01*
X98874582Y-105250500D01*
X98941621Y-105270185D01*
X98974900Y-105301615D01*
X99008028Y-105347212D01*
X99008032Y-105347217D01*
X99152786Y-105491971D01*
X99273226Y-105579474D01*
X99318390Y-105612287D01*
X99434607Y-105671503D01*
X99500776Y-105705218D01*
X99500778Y-105705218D01*
X99500781Y-105705220D01*
X99605137Y-105739127D01*
X99695465Y-105768477D01*
X99796557Y-105784488D01*
X99897648Y-105800500D01*
X99897649Y-105800500D01*
X100102351Y-105800500D01*
X100102352Y-105800500D01*
X100304534Y-105768477D01*
X100499219Y-105705220D01*
X100681610Y-105612287D01*
X100774590Y-105544732D01*
X100847213Y-105491971D01*
X100847215Y-105491968D01*
X100847219Y-105491966D01*
X100991966Y-105347219D01*
X100991968Y-105347215D01*
X100991971Y-105347213D01*
X101062236Y-105250500D01*
X101112287Y-105181610D01*
X101205220Y-104999219D01*
X101268477Y-104804534D01*
X101300500Y-104602352D01*
X101300500Y-104397682D01*
X103700000Y-104397682D01*
X103700000Y-104602317D01*
X103732009Y-104804417D01*
X103795244Y-104999031D01*
X103888141Y-105181350D01*
X103888147Y-105181359D01*
X103920523Y-105225921D01*
X103920524Y-105225922D01*
X104600000Y-104546446D01*
X104600000Y-104552661D01*
X104627259Y-104654394D01*
X104679920Y-104745606D01*
X104754394Y-104820080D01*
X104845606Y-104872741D01*
X104947339Y-104900000D01*
X104953553Y-104900000D01*
X104274076Y-105579474D01*
X104318650Y-105611859D01*
X104500968Y-105704755D01*
X104695582Y-105767990D01*
X104897683Y-105800000D01*
X105102317Y-105800000D01*
X105304417Y-105767990D01*
X105499031Y-105704755D01*
X105681349Y-105611859D01*
X105725921Y-105579474D01*
X105046447Y-104900000D01*
X105052661Y-104900000D01*
X105154394Y-104872741D01*
X105245606Y-104820080D01*
X105320080Y-104745606D01*
X105372741Y-104654394D01*
X105400000Y-104552661D01*
X105400000Y-104546448D01*
X106079474Y-105225922D01*
X106079474Y-105225921D01*
X106111859Y-105181349D01*
X106204755Y-104999031D01*
X106267990Y-104804417D01*
X106300000Y-104602317D01*
X106300000Y-104397682D01*
X106267990Y-104195582D01*
X106204755Y-104000968D01*
X106111859Y-103818650D01*
X106079474Y-103774077D01*
X106079474Y-103774076D01*
X105400000Y-104453551D01*
X105400000Y-104447339D01*
X105372741Y-104345606D01*
X105320080Y-104254394D01*
X105245606Y-104179920D01*
X105154394Y-104127259D01*
X105052661Y-104100000D01*
X105046446Y-104100000D01*
X105725922Y-103420524D01*
X105725921Y-103420523D01*
X105681359Y-103388147D01*
X105681350Y-103388141D01*
X105499031Y-103295244D01*
X105304417Y-103232009D01*
X105102317Y-103200000D01*
X104897683Y-103200000D01*
X104695582Y-103232009D01*
X104500968Y-103295244D01*
X104318644Y-103388143D01*
X104274077Y-103420523D01*
X104274077Y-103420524D01*
X104953554Y-104100000D01*
X104947339Y-104100000D01*
X104845606Y-104127259D01*
X104754394Y-104179920D01*
X104679920Y-104254394D01*
X104627259Y-104345606D01*
X104600000Y-104447339D01*
X104600000Y-104453553D01*
X103920524Y-103774077D01*
X103920523Y-103774077D01*
X103888143Y-103818644D01*
X103795244Y-104000968D01*
X103732009Y-104195582D01*
X103700000Y-104397682D01*
X101300500Y-104397682D01*
X101300500Y-104397648D01*
X101292257Y-104345606D01*
X101268477Y-104195465D01*
X101237458Y-104100000D01*
X101205220Y-104000781D01*
X101205218Y-104000778D01*
X101205218Y-104000776D01*
X101112419Y-103818650D01*
X101112287Y-103818390D01*
X101080092Y-103774077D01*
X100991971Y-103652786D01*
X100847213Y-103508028D01*
X100681613Y-103387715D01*
X100681612Y-103387714D01*
X100681610Y-103387713D01*
X100618373Y-103355492D01*
X100499223Y-103294781D01*
X100304534Y-103231522D01*
X100129995Y-103203878D01*
X100102352Y-103199500D01*
X99897648Y-103199500D01*
X99873329Y-103203351D01*
X99695465Y-103231522D01*
X99500776Y-103294781D01*
X99318386Y-103387715D01*
X99152786Y-103508028D01*
X99008032Y-103652782D01*
X99008028Y-103652787D01*
X98974900Y-103698385D01*
X98919571Y-103741051D01*
X98874582Y-103749500D01*
X76862229Y-103749500D01*
X76795190Y-103729815D01*
X76774548Y-103713181D01*
X75786819Y-102725451D01*
X75753334Y-102664128D01*
X75750500Y-102637770D01*
X75750500Y-93397682D01*
X81547349Y-93397682D01*
X81547349Y-93602317D01*
X81579358Y-93804417D01*
X81642593Y-93999031D01*
X81735490Y-94181350D01*
X81735496Y-94181359D01*
X81767872Y-94225921D01*
X81767873Y-94225922D01*
X82447349Y-93546446D01*
X82447349Y-93552661D01*
X82474608Y-93654394D01*
X82527269Y-93745606D01*
X82601743Y-93820080D01*
X82692955Y-93872741D01*
X82794688Y-93900000D01*
X82800902Y-93900000D01*
X82121425Y-94579474D01*
X82165999Y-94611859D01*
X82348317Y-94704755D01*
X82542931Y-94767990D01*
X82745032Y-94800000D01*
X82949666Y-94800000D01*
X83151766Y-94767990D01*
X83346380Y-94704755D01*
X83528698Y-94611859D01*
X83573270Y-94579474D01*
X82893796Y-93900000D01*
X82900010Y-93900000D01*
X83001743Y-93872741D01*
X83092955Y-93820080D01*
X83167429Y-93745606D01*
X83220090Y-93654394D01*
X83247349Y-93552661D01*
X83247349Y-93546447D01*
X83926823Y-94225921D01*
X83959208Y-94181349D01*
X84052104Y-93999031D01*
X84115339Y-93804417D01*
X84147349Y-93602317D01*
X84147349Y-93397682D01*
X84115339Y-93195582D01*
X84052104Y-93000968D01*
X83959208Y-92818650D01*
X83926823Y-92774077D01*
X83926823Y-92774076D01*
X83247349Y-93453551D01*
X83247349Y-93447339D01*
X83220090Y-93345606D01*
X83167429Y-93254394D01*
X83092955Y-93179920D01*
X83001743Y-93127259D01*
X82900010Y-93100000D01*
X82893795Y-93100000D01*
X83573271Y-92420524D01*
X83573270Y-92420523D01*
X83528708Y-92388147D01*
X83528699Y-92388141D01*
X83346380Y-92295244D01*
X83151766Y-92232009D01*
X82949666Y-92200000D01*
X82745032Y-92200000D01*
X82542931Y-92232009D01*
X82348317Y-92295244D01*
X82165993Y-92388143D01*
X82121426Y-92420523D01*
X82121426Y-92420524D01*
X82800903Y-93100000D01*
X82794688Y-93100000D01*
X82692955Y-93127259D01*
X82601743Y-93179920D01*
X82527269Y-93254394D01*
X82474608Y-93345606D01*
X82447349Y-93447339D01*
X82447349Y-93453553D01*
X81767873Y-92774077D01*
X81767872Y-92774077D01*
X81735492Y-92818644D01*
X81642593Y-93000968D01*
X81579358Y-93195582D01*
X81547349Y-93397682D01*
X75750500Y-93397682D01*
X75750500Y-91374500D01*
X75770185Y-91307461D01*
X75822989Y-91261706D01*
X75874500Y-91250500D01*
X82005342Y-91250500D01*
X82044346Y-91256794D01*
X82144552Y-91289999D01*
X82247340Y-91300500D01*
X83447357Y-91300499D01*
X83550146Y-91289999D01*
X83650352Y-91256794D01*
X83689356Y-91250500D01*
X94901583Y-91250500D01*
X100545180Y-91250500D01*
X100612219Y-91270185D01*
X100644448Y-91300191D01*
X100649954Y-91307546D01*
X100649957Y-91307548D01*
X100765164Y-91393793D01*
X100765171Y-91393797D01*
X100900017Y-91444091D01*
X100900016Y-91444091D01*
X100906944Y-91444835D01*
X100959627Y-91450500D01*
X102960372Y-91450499D01*
X103019983Y-91444091D01*
X103154831Y-91393796D01*
X103270046Y-91307546D01*
X103356296Y-91192331D01*
X103366872Y-91163974D01*
X103408740Y-91108041D01*
X103474204Y-91083622D01*
X103542477Y-91098472D01*
X103555940Y-91106988D01*
X103738723Y-91239788D01*
X103942429Y-91343582D01*
X104159871Y-91414234D01*
X104250000Y-91428509D01*
X104250000Y-90440747D01*
X104287708Y-90462518D01*
X104427591Y-90500000D01*
X104572409Y-90500000D01*
X104712292Y-90462518D01*
X104750000Y-90440747D01*
X104750000Y-91428508D01*
X104840128Y-91414234D01*
X105057570Y-91343582D01*
X105261276Y-91239788D01*
X105446242Y-91105402D01*
X105607905Y-90943739D01*
X105669371Y-90859137D01*
X105724701Y-90816470D01*
X105794314Y-90810491D01*
X105856109Y-90843096D01*
X105870007Y-90859134D01*
X105931714Y-90944066D01*
X106093434Y-91105786D01*
X106278462Y-91240217D01*
X106481327Y-91343582D01*
X106482244Y-91344049D01*
X106699751Y-91414721D01*
X106699752Y-91414721D01*
X106699755Y-91414722D01*
X106925646Y-91450500D01*
X106925647Y-91450500D01*
X107154353Y-91450500D01*
X107154354Y-91450500D01*
X107380245Y-91414722D01*
X107380248Y-91414721D01*
X107380249Y-91414721D01*
X107597755Y-91344049D01*
X107597755Y-91344048D01*
X107597758Y-91344048D01*
X107754831Y-91264014D01*
X107811126Y-91250500D01*
X119125500Y-91250500D01*
X119192539Y-91270185D01*
X119238294Y-91322989D01*
X119249500Y-91374500D01*
X119249500Y-99073918D01*
X119249500Y-99073920D01*
X119249499Y-99073920D01*
X119278340Y-99218907D01*
X119278343Y-99218917D01*
X119334914Y-99355492D01*
X119367812Y-99404727D01*
X119367813Y-99404730D01*
X119417046Y-99478414D01*
X119417052Y-99478421D01*
X120417049Y-100478416D01*
X120521584Y-100582951D01*
X120521587Y-100582953D01*
X120521588Y-100582954D01*
X120644503Y-100665083D01*
X120644506Y-100665085D01*
X120694665Y-100685861D01*
X120701080Y-100688518D01*
X120781088Y-100721659D01*
X120897241Y-100744763D01*
X120920380Y-100749365D01*
X120926081Y-100750500D01*
X120926082Y-100750500D01*
X120926083Y-100750500D01*
X121073918Y-100750500D01*
X135439953Y-100750500D01*
X135506992Y-100770185D01*
X135527634Y-100786819D01*
X135652786Y-100911971D01*
X135807749Y-101024556D01*
X135818390Y-101032287D01*
X135934607Y-101091503D01*
X136000776Y-101125218D01*
X136000778Y-101125218D01*
X136000781Y-101125220D01*
X136105137Y-101159127D01*
X136195465Y-101188477D01*
X136296557Y-101204488D01*
X136397648Y-101220500D01*
X136397649Y-101220500D01*
X136602351Y-101220500D01*
X136602352Y-101220500D01*
X136804534Y-101188477D01*
X136999219Y-101125220D01*
X137181610Y-101032287D01*
X137274590Y-100964732D01*
X137347213Y-100911971D01*
X137347215Y-100911968D01*
X137347219Y-100911966D01*
X137491966Y-100767219D01*
X137491968Y-100767215D01*
X137491971Y-100767213D01*
X137549145Y-100688518D01*
X137612287Y-100601610D01*
X137705220Y-100419219D01*
X137768477Y-100224534D01*
X137800500Y-100022352D01*
X137800500Y-99817648D01*
X137768477Y-99615466D01*
X137705220Y-99420781D01*
X137705218Y-99420778D01*
X137705218Y-99420776D01*
X137671503Y-99354607D01*
X137612287Y-99238390D01*
X137583222Y-99198385D01*
X137491971Y-99072786D01*
X137347213Y-98928028D01*
X137181613Y-98807715D01*
X137181612Y-98807714D01*
X137181610Y-98807713D01*
X137124653Y-98778691D01*
X136999223Y-98714781D01*
X136804534Y-98651522D01*
X136629995Y-98623878D01*
X136602352Y-98619500D01*
X136397648Y-98619500D01*
X136373329Y-98623351D01*
X136195465Y-98651522D01*
X136000776Y-98714781D01*
X135818386Y-98807715D01*
X135652786Y-98928028D01*
X135508032Y-99072782D01*
X135508028Y-99072787D01*
X135416777Y-99198385D01*
X135361448Y-99241051D01*
X135316459Y-99249500D01*
X121362229Y-99249500D01*
X121295190Y-99229815D01*
X121274548Y-99213181D01*
X120786819Y-98725451D01*
X120753334Y-98664128D01*
X120750500Y-98637770D01*
X120750500Y-91374500D01*
X120770185Y-91307461D01*
X120822989Y-91261706D01*
X120874500Y-91250500D01*
X135448204Y-91250500D01*
X135515243Y-91270185D01*
X135560998Y-91322989D01*
X135571822Y-91384230D01*
X135568965Y-91420524D01*
X136248442Y-92100000D01*
X136242227Y-92100000D01*
X136140494Y-92127259D01*
X136049282Y-92179920D01*
X135974808Y-92254394D01*
X135922147Y-92345606D01*
X135894888Y-92447339D01*
X135894888Y-92453553D01*
X135215412Y-91774077D01*
X135215411Y-91774077D01*
X135183031Y-91818644D01*
X135090132Y-92000968D01*
X135026897Y-92195582D01*
X134994888Y-92397682D01*
X134994888Y-92602317D01*
X135026897Y-92804417D01*
X135090132Y-92999031D01*
X135183029Y-93181350D01*
X135183035Y-93181359D01*
X135215411Y-93225921D01*
X135215412Y-93225922D01*
X135894888Y-92546446D01*
X135894888Y-92552661D01*
X135922147Y-92654394D01*
X135974808Y-92745606D01*
X136049282Y-92820080D01*
X136140494Y-92872741D01*
X136242227Y-92900000D01*
X136248441Y-92900000D01*
X135568964Y-93579474D01*
X135613538Y-93611859D01*
X135795856Y-93704755D01*
X135990470Y-93767990D01*
X136192571Y-93800000D01*
X136397205Y-93800000D01*
X136599305Y-93767990D01*
X136793919Y-93704755D01*
X136976237Y-93611859D01*
X137020810Y-93579474D01*
X136341335Y-92900000D01*
X136347549Y-92900000D01*
X136449282Y-92872741D01*
X136540494Y-92820080D01*
X136614968Y-92745606D01*
X136667629Y-92654394D01*
X136694888Y-92552661D01*
X136694888Y-92546447D01*
X137374362Y-93225921D01*
X137406747Y-93181349D01*
X137499643Y-92999031D01*
X137562878Y-92804417D01*
X137594888Y-92602317D01*
X137594888Y-92397682D01*
X137562878Y-92195582D01*
X137499643Y-92000968D01*
X137406747Y-91818650D01*
X137374362Y-91774077D01*
X137374362Y-91774076D01*
X136694888Y-92453551D01*
X136694888Y-92447339D01*
X136667629Y-92345606D01*
X136614968Y-92254394D01*
X136540494Y-92179920D01*
X136449282Y-92127259D01*
X136347549Y-92100000D01*
X136341334Y-92100000D01*
X137020810Y-91420524D01*
X137017954Y-91384228D01*
X137032319Y-91315851D01*
X137081370Y-91266094D01*
X137141572Y-91250500D01*
X161308561Y-91250500D01*
X161375600Y-91270185D01*
X161382872Y-91275233D01*
X161407668Y-91293795D01*
X161407671Y-91293797D01*
X161425643Y-91300500D01*
X161542517Y-91344091D01*
X161602127Y-91350500D01*
X161612685Y-91350499D01*
X161679723Y-91370179D01*
X161700372Y-91386818D01*
X162370591Y-92057037D01*
X162307007Y-92074075D01*
X162192993Y-92139901D01*
X162099901Y-92232993D01*
X162034075Y-92347007D01*
X162017037Y-92410591D01*
X161384728Y-91778282D01*
X161384727Y-91778282D01*
X161345380Y-91832439D01*
X161248904Y-92021782D01*
X161183242Y-92223869D01*
X161183242Y-92223872D01*
X161150000Y-92433753D01*
X161150000Y-92646246D01*
X161183242Y-92856127D01*
X161183242Y-92856130D01*
X161248904Y-93058217D01*
X161345375Y-93247550D01*
X161384728Y-93301716D01*
X162017037Y-92669408D01*
X162034075Y-92732993D01*
X162099901Y-92847007D01*
X162192993Y-92940099D01*
X162307007Y-93005925D01*
X162370590Y-93022962D01*
X161738282Y-93655269D01*
X161738282Y-93655270D01*
X161792449Y-93694624D01*
X161981782Y-93791095D01*
X162183870Y-93856757D01*
X162393754Y-93890000D01*
X162606246Y-93890000D01*
X162816127Y-93856757D01*
X162816130Y-93856757D01*
X163018217Y-93791095D01*
X163207554Y-93694622D01*
X163261716Y-93655270D01*
X163261717Y-93655270D01*
X162629408Y-93022962D01*
X162692993Y-93005925D01*
X162807007Y-92940099D01*
X162900099Y-92847007D01*
X162965925Y-92732993D01*
X162982962Y-92669408D01*
X163615270Y-93301717D01*
X163615270Y-93301716D01*
X163654622Y-93247554D01*
X163751095Y-93058217D01*
X163816757Y-92856130D01*
X163816757Y-92856127D01*
X163850000Y-92646246D01*
X163850000Y-92433753D01*
X163816757Y-92223872D01*
X163816757Y-92223869D01*
X163751095Y-92021782D01*
X163654624Y-91832449D01*
X163615270Y-91778282D01*
X163615269Y-91778282D01*
X162982962Y-92410590D01*
X162965925Y-92347007D01*
X162900099Y-92232993D01*
X162807007Y-92139901D01*
X162692993Y-92074075D01*
X162629409Y-92057037D01*
X163299627Y-91386818D01*
X163360950Y-91353333D01*
X163387307Y-91350499D01*
X163397872Y-91350499D01*
X163457483Y-91344091D01*
X163592331Y-91293796D01*
X163707546Y-91207546D01*
X163793796Y-91092331D01*
X163844091Y-90957483D01*
X163850500Y-90897873D01*
X163850499Y-89102128D01*
X163844091Y-89042517D01*
X163843474Y-89040864D01*
X163793797Y-88907671D01*
X163793793Y-88907664D01*
X163707547Y-88792455D01*
X163707544Y-88792452D01*
X163592335Y-88706206D01*
X163592328Y-88706202D01*
X163457482Y-88655908D01*
X163457483Y-88655908D01*
X163397883Y-88649501D01*
X163397881Y-88649500D01*
X163397873Y-88649500D01*
X163397864Y-88649500D01*
X161602129Y-88649500D01*
X161602123Y-88649501D01*
X161542516Y-88655908D01*
X161407671Y-88706202D01*
X161407668Y-88706204D01*
X161382872Y-88724767D01*
X161317408Y-88749184D01*
X161308561Y-88749500D01*
X137136895Y-88749500D01*
X137097891Y-88743206D01*
X137076217Y-88736024D01*
X136997685Y-88710001D01*
X136997683Y-88710000D01*
X136894898Y-88699500D01*
X135694886Y-88699500D01*
X135694869Y-88699501D01*
X135592091Y-88710000D01*
X135592088Y-88710001D01*
X135491885Y-88743206D01*
X135452881Y-88749500D01*
X107965313Y-88749500D01*
X107898274Y-88729815D01*
X107892427Y-88725818D01*
X107890980Y-88724767D01*
X107801538Y-88659783D01*
X107793933Y-88655908D01*
X107597755Y-88555950D01*
X107380248Y-88485278D01*
X107194812Y-88455908D01*
X107154354Y-88449500D01*
X106925646Y-88449500D01*
X106885188Y-88455908D01*
X106699753Y-88485278D01*
X106699750Y-88485278D01*
X106482244Y-88555950D01*
X106278461Y-88659783D01*
X106209344Y-88710000D01*
X106093434Y-88794214D01*
X106093432Y-88794216D01*
X106093431Y-88794216D01*
X105931716Y-88955931D01*
X105931709Y-88955940D01*
X105870007Y-89040864D01*
X105814677Y-89083530D01*
X105745063Y-89089508D01*
X105683269Y-89056901D01*
X105669372Y-89040863D01*
X105607907Y-88956263D01*
X105607902Y-88956257D01*
X105446242Y-88794597D01*
X105261276Y-88660211D01*
X105057568Y-88556417D01*
X104840124Y-88485765D01*
X104750000Y-88471490D01*
X104750000Y-89459252D01*
X104712292Y-89437482D01*
X104572409Y-89400000D01*
X104427591Y-89400000D01*
X104287708Y-89437482D01*
X104250000Y-89459252D01*
X104250000Y-88471490D01*
X104249999Y-88471490D01*
X104159875Y-88485765D01*
X103942431Y-88556417D01*
X103738719Y-88660213D01*
X103555939Y-88793010D01*
X103490132Y-88816490D01*
X103422079Y-88800664D01*
X103373384Y-88750558D01*
X103366875Y-88736033D01*
X103356296Y-88707669D01*
X103356295Y-88707667D01*
X103356293Y-88707664D01*
X103270047Y-88592455D01*
X103270044Y-88592452D01*
X103154835Y-88506206D01*
X103154828Y-88506202D01*
X103019982Y-88455908D01*
X103019983Y-88455908D01*
X102960383Y-88449501D01*
X102960381Y-88449500D01*
X102960373Y-88449500D01*
X102960364Y-88449500D01*
X100959629Y-88449500D01*
X100959623Y-88449501D01*
X100900016Y-88455908D01*
X100765171Y-88506202D01*
X100765164Y-88506206D01*
X100649956Y-88592452D01*
X100649955Y-88592453D01*
X100649954Y-88592454D01*
X100569819Y-88699501D01*
X100569587Y-88699811D01*
X100513653Y-88741682D01*
X100470320Y-88749500D01*
X83689356Y-88749500D01*
X83650352Y-88743206D01*
X83628678Y-88736024D01*
X83550146Y-88710001D01*
X83550144Y-88710000D01*
X83447359Y-88699500D01*
X82247347Y-88699500D01*
X82247330Y-88699501D01*
X82144552Y-88710000D01*
X82144549Y-88710001D01*
X82044346Y-88743206D01*
X82005342Y-88749500D01*
X70191439Y-88749500D01*
X70124400Y-88729815D01*
X70117128Y-88724767D01*
X70092331Y-88706204D01*
X70092328Y-88706202D01*
X69957482Y-88655908D01*
X69957483Y-88655908D01*
X69897883Y-88649501D01*
X69897881Y-88649500D01*
X69897873Y-88649500D01*
X69897864Y-88649500D01*
X68102129Y-88649500D01*
X68102123Y-88649501D01*
X68042516Y-88655908D01*
X67907671Y-88706202D01*
X67907664Y-88706206D01*
X67792455Y-88792452D01*
X67792452Y-88792455D01*
X67706206Y-88907664D01*
X67706202Y-88907671D01*
X67655908Y-89042517D01*
X67649501Y-89102116D01*
X67649501Y-89102123D01*
X67649500Y-89102135D01*
X62000500Y-89102135D01*
X62000500Y-83624500D01*
X62020185Y-83557461D01*
X62072989Y-83511706D01*
X62124500Y-83500500D01*
X205875500Y-83500500D01*
X205942539Y-83520185D01*
G37*
%TD.AperFunction*%
%TD*%
M02*
