%TF.GenerationSoftware,KiCad,Pcbnew,9.0.7*%
%TF.CreationDate,2026-03-03T20:00:45+01:00*%
%TF.ProjectId,Linear_Voltage_Regulator_5V,4c696e65-6172-45f5-966f-6c746167655f,rev?*%
%TF.SameCoordinates,Original*%
%TF.FileFunction,Legend,Top*%
%TF.FilePolarity,Positive*%
%FSLAX46Y46*%
G04 Gerber Fmt 4.6, Leading zero omitted, Abs format (unit mm)*
G04 Created by KiCad (PCBNEW 9.0.7) date 2026-03-03 20:00:45*
%MOMM*%
%LPD*%
G01*
G04 APERTURE LIST*
%ADD10C,0.150000*%
%ADD11C,0.120000*%
G04 APERTURE END LIST*
D10*
X140404468Y-91416666D02*
X140452088Y-91464285D01*
X140452088Y-91464285D02*
X140499707Y-91607142D01*
X140499707Y-91607142D02*
X140499707Y-91702380D01*
X140499707Y-91702380D02*
X140452088Y-91845237D01*
X140452088Y-91845237D02*
X140356849Y-91940475D01*
X140356849Y-91940475D02*
X140261611Y-91988094D01*
X140261611Y-91988094D02*
X140071135Y-92035713D01*
X140071135Y-92035713D02*
X139928278Y-92035713D01*
X139928278Y-92035713D02*
X139737802Y-91988094D01*
X139737802Y-91988094D02*
X139642564Y-91940475D01*
X139642564Y-91940475D02*
X139547326Y-91845237D01*
X139547326Y-91845237D02*
X139499707Y-91702380D01*
X139499707Y-91702380D02*
X139499707Y-91607142D01*
X139499707Y-91607142D02*
X139547326Y-91464285D01*
X139547326Y-91464285D02*
X139594945Y-91416666D01*
X139499707Y-91083332D02*
X139499707Y-90464285D01*
X139499707Y-90464285D02*
X139880659Y-90797618D01*
X139880659Y-90797618D02*
X139880659Y-90654761D01*
X139880659Y-90654761D02*
X139928278Y-90559523D01*
X139928278Y-90559523D02*
X139975897Y-90511904D01*
X139975897Y-90511904D02*
X140071135Y-90464285D01*
X140071135Y-90464285D02*
X140309230Y-90464285D01*
X140309230Y-90464285D02*
X140404468Y-90511904D01*
X140404468Y-90511904D02*
X140452088Y-90559523D01*
X140452088Y-90559523D02*
X140499707Y-90654761D01*
X140499707Y-90654761D02*
X140499707Y-90940475D01*
X140499707Y-90940475D02*
X140452088Y-91035713D01*
X140452088Y-91035713D02*
X140404468Y-91083332D01*
X88456929Y-91916666D02*
X88504549Y-91964285D01*
X88504549Y-91964285D02*
X88552168Y-92107142D01*
X88552168Y-92107142D02*
X88552168Y-92202380D01*
X88552168Y-92202380D02*
X88504549Y-92345237D01*
X88504549Y-92345237D02*
X88409310Y-92440475D01*
X88409310Y-92440475D02*
X88314072Y-92488094D01*
X88314072Y-92488094D02*
X88123596Y-92535713D01*
X88123596Y-92535713D02*
X87980739Y-92535713D01*
X87980739Y-92535713D02*
X87790263Y-92488094D01*
X87790263Y-92488094D02*
X87695025Y-92440475D01*
X87695025Y-92440475D02*
X87599787Y-92345237D01*
X87599787Y-92345237D02*
X87552168Y-92202380D01*
X87552168Y-92202380D02*
X87552168Y-92107142D01*
X87552168Y-92107142D02*
X87599787Y-91964285D01*
X87599787Y-91964285D02*
X87647406Y-91916666D01*
X88552168Y-90964285D02*
X88552168Y-91535713D01*
X88552168Y-91249999D02*
X87552168Y-91249999D01*
X87552168Y-91249999D02*
X87695025Y-91345237D01*
X87695025Y-91345237D02*
X87790263Y-91440475D01*
X87790263Y-91440475D02*
X87837882Y-91535713D01*
X161103333Y-107494819D02*
X160770000Y-107018628D01*
X160531905Y-107494819D02*
X160531905Y-106494819D01*
X160531905Y-106494819D02*
X160912857Y-106494819D01*
X160912857Y-106494819D02*
X161008095Y-106542438D01*
X161008095Y-106542438D02*
X161055714Y-106590057D01*
X161055714Y-106590057D02*
X161103333Y-106685295D01*
X161103333Y-106685295D02*
X161103333Y-106828152D01*
X161103333Y-106828152D02*
X161055714Y-106923390D01*
X161055714Y-106923390D02*
X161008095Y-106971009D01*
X161008095Y-106971009D02*
X160912857Y-107018628D01*
X160912857Y-107018628D02*
X160531905Y-107018628D01*
X161484286Y-106590057D02*
X161531905Y-106542438D01*
X161531905Y-106542438D02*
X161627143Y-106494819D01*
X161627143Y-106494819D02*
X161865238Y-106494819D01*
X161865238Y-106494819D02*
X161960476Y-106542438D01*
X161960476Y-106542438D02*
X162008095Y-106590057D01*
X162008095Y-106590057D02*
X162055714Y-106685295D01*
X162055714Y-106685295D02*
X162055714Y-106780533D01*
X162055714Y-106780533D02*
X162008095Y-106923390D01*
X162008095Y-106923390D02*
X161436667Y-107494819D01*
X161436667Y-107494819D02*
X162055714Y-107494819D01*
X162166666Y-87074819D02*
X162166666Y-87789104D01*
X162166666Y-87789104D02*
X162119047Y-87931961D01*
X162119047Y-87931961D02*
X162023809Y-88027200D01*
X162023809Y-88027200D02*
X161880952Y-88074819D01*
X161880952Y-88074819D02*
X161785714Y-88074819D01*
X162595238Y-87170057D02*
X162642857Y-87122438D01*
X162642857Y-87122438D02*
X162738095Y-87074819D01*
X162738095Y-87074819D02*
X162976190Y-87074819D01*
X162976190Y-87074819D02*
X163071428Y-87122438D01*
X163071428Y-87122438D02*
X163119047Y-87170057D01*
X163119047Y-87170057D02*
X163166666Y-87265295D01*
X163166666Y-87265295D02*
X163166666Y-87360533D01*
X163166666Y-87360533D02*
X163119047Y-87503390D01*
X163119047Y-87503390D02*
X162547619Y-88074819D01*
X162547619Y-88074819D02*
X163166666Y-88074819D01*
X103738095Y-85304819D02*
X103738095Y-86114342D01*
X103738095Y-86114342D02*
X103785714Y-86209580D01*
X103785714Y-86209580D02*
X103833333Y-86257200D01*
X103833333Y-86257200D02*
X103928571Y-86304819D01*
X103928571Y-86304819D02*
X104119047Y-86304819D01*
X104119047Y-86304819D02*
X104214285Y-86257200D01*
X104214285Y-86257200D02*
X104261904Y-86209580D01*
X104261904Y-86209580D02*
X104309523Y-86114342D01*
X104309523Y-86114342D02*
X104309523Y-85304819D01*
X105309523Y-86304819D02*
X104738095Y-86304819D01*
X105023809Y-86304819D02*
X105023809Y-85304819D01*
X105023809Y-85304819D02*
X104928571Y-85447676D01*
X104928571Y-85447676D02*
X104833333Y-85542914D01*
X104833333Y-85542914D02*
X104738095Y-85590533D01*
X68666666Y-87074819D02*
X68666666Y-87789104D01*
X68666666Y-87789104D02*
X68619047Y-87931961D01*
X68619047Y-87931961D02*
X68523809Y-88027200D01*
X68523809Y-88027200D02*
X68380952Y-88074819D01*
X68380952Y-88074819D02*
X68285714Y-88074819D01*
X69666666Y-88074819D02*
X69095238Y-88074819D01*
X69380952Y-88074819D02*
X69380952Y-87074819D01*
X69380952Y-87074819D02*
X69285714Y-87217676D01*
X69285714Y-87217676D02*
X69190476Y-87312914D01*
X69190476Y-87312914D02*
X69095238Y-87360533D01*
X139324819Y-105166666D02*
X138848628Y-105499999D01*
X139324819Y-105738094D02*
X138324819Y-105738094D01*
X138324819Y-105738094D02*
X138324819Y-105357142D01*
X138324819Y-105357142D02*
X138372438Y-105261904D01*
X138372438Y-105261904D02*
X138420057Y-105214285D01*
X138420057Y-105214285D02*
X138515295Y-105166666D01*
X138515295Y-105166666D02*
X138658152Y-105166666D01*
X138658152Y-105166666D02*
X138753390Y-105214285D01*
X138753390Y-105214285D02*
X138801009Y-105261904D01*
X138801009Y-105261904D02*
X138848628Y-105357142D01*
X138848628Y-105357142D02*
X138848628Y-105738094D01*
X139324819Y-104214285D02*
X139324819Y-104785713D01*
X139324819Y-104499999D02*
X138324819Y-104499999D01*
X138324819Y-104499999D02*
X138467676Y-104595237D01*
X138467676Y-104595237D02*
X138562914Y-104690475D01*
X138562914Y-104690475D02*
X138610533Y-104785713D01*
X102333333Y-102359580D02*
X102285714Y-102407200D01*
X102285714Y-102407200D02*
X102142857Y-102454819D01*
X102142857Y-102454819D02*
X102047619Y-102454819D01*
X102047619Y-102454819D02*
X101904762Y-102407200D01*
X101904762Y-102407200D02*
X101809524Y-102311961D01*
X101809524Y-102311961D02*
X101761905Y-102216723D01*
X101761905Y-102216723D02*
X101714286Y-102026247D01*
X101714286Y-102026247D02*
X101714286Y-101883390D01*
X101714286Y-101883390D02*
X101761905Y-101692914D01*
X101761905Y-101692914D02*
X101809524Y-101597676D01*
X101809524Y-101597676D02*
X101904762Y-101502438D01*
X101904762Y-101502438D02*
X102047619Y-101454819D01*
X102047619Y-101454819D02*
X102142857Y-101454819D01*
X102142857Y-101454819D02*
X102285714Y-101502438D01*
X102285714Y-101502438D02*
X102333333Y-101550057D01*
X102714286Y-101550057D02*
X102761905Y-101502438D01*
X102761905Y-101502438D02*
X102857143Y-101454819D01*
X102857143Y-101454819D02*
X103095238Y-101454819D01*
X103095238Y-101454819D02*
X103190476Y-101502438D01*
X103190476Y-101502438D02*
X103238095Y-101550057D01*
X103238095Y-101550057D02*
X103285714Y-101645295D01*
X103285714Y-101645295D02*
X103285714Y-101740533D01*
X103285714Y-101740533D02*
X103238095Y-101883390D01*
X103238095Y-101883390D02*
X102666667Y-102454819D01*
X102666667Y-102454819D02*
X103285714Y-102454819D01*
D11*
%TO.C,C3*%
X135254888Y-91490000D02*
X133725888Y-91490000D01*
X135254888Y-91530000D02*
X133729888Y-91530000D01*
X135254888Y-91570000D02*
X133734888Y-91570000D01*
X135254888Y-91610000D02*
X133739888Y-91610000D01*
X135254888Y-91650000D02*
X133745888Y-91650000D01*
X135254888Y-91690000D02*
X133751888Y-91690000D01*
X135254888Y-91730000D02*
X133758888Y-91730000D01*
X135254888Y-91770000D02*
X133766888Y-91770000D01*
X135254888Y-91810000D02*
X133775888Y-91810000D01*
X135254888Y-91850000D02*
X133784888Y-91850000D01*
X135254888Y-91890000D02*
X133793888Y-91890000D01*
X135254888Y-91930000D02*
X133804888Y-91930000D01*
X135254888Y-91970000D02*
X133815888Y-91970000D01*
X135254888Y-92010000D02*
X133827888Y-92010000D01*
X135254888Y-92050000D02*
X133839888Y-92050000D01*
X135254888Y-92090000D02*
X133852888Y-92090000D01*
X135254888Y-92130000D02*
X133866888Y-92130000D01*
X135254888Y-92170000D02*
X133881888Y-92170000D01*
X135254888Y-92210000D02*
X133896888Y-92210000D01*
X135254888Y-92250000D02*
X133912888Y-92250000D01*
X135254888Y-92290000D02*
X133929888Y-92290000D01*
X135254888Y-92330000D02*
X133947888Y-92330000D01*
X135254888Y-92370000D02*
X133965888Y-92370000D01*
X135254888Y-92410000D02*
X133985888Y-92410000D01*
X135254888Y-92450000D02*
X134005888Y-92450000D01*
X135254888Y-92490000D02*
X134026888Y-92490000D01*
X135254888Y-92530000D02*
X134048888Y-92530000D01*
X135254888Y-92570000D02*
X134071888Y-92570000D01*
X135254888Y-92610000D02*
X134095888Y-92610000D01*
X135254888Y-92650000D02*
X134119888Y-92650000D01*
X135254888Y-92690000D02*
X134145888Y-92690000D01*
X135254888Y-92730000D02*
X134172888Y-92730000D01*
X135254888Y-92770000D02*
X134200888Y-92770000D01*
X135254888Y-92810000D02*
X134229888Y-92810000D01*
X135254888Y-92850000D02*
X134259888Y-92850000D01*
X135254888Y-92890000D02*
X134291888Y-92890000D01*
X135254888Y-92930000D02*
X134324888Y-92930000D01*
X135254888Y-92970000D02*
X134358888Y-92970000D01*
X135254888Y-93010000D02*
X134393888Y-93010000D01*
X135254888Y-93050000D02*
X134430888Y-93050000D01*
X135254888Y-93090000D02*
X134469888Y-93090000D01*
X135254888Y-93130000D02*
X134509888Y-93130000D01*
X135254888Y-93170000D02*
X134551888Y-93170000D01*
X135254888Y-93210000D02*
X134595888Y-93210000D01*
X135254888Y-93250000D02*
X134642888Y-93250000D01*
X135254888Y-93290000D02*
X134690888Y-93290000D01*
X135254888Y-93330000D02*
X134741888Y-93330000D01*
X135254888Y-93370000D02*
X134795888Y-93370000D01*
X135254888Y-93410000D02*
X134851888Y-93410000D01*
X135254888Y-93450000D02*
X134911888Y-93450000D01*
X135254888Y-93490000D02*
X134975888Y-93490000D01*
X135254888Y-93530000D02*
X135043888Y-93530000D01*
X136577888Y-93850000D02*
X136011888Y-93850000D01*
X136811888Y-93810000D02*
X135777888Y-93810000D01*
X136971888Y-93770000D02*
X135617888Y-93770000D01*
X137099888Y-93730000D02*
X135489888Y-93730000D01*
X137208888Y-93690000D02*
X135380888Y-93690000D01*
X137305888Y-93650000D02*
X135283888Y-93650000D01*
X137392888Y-93610000D02*
X135196888Y-93610000D01*
X137471888Y-93570000D02*
X135117888Y-93570000D01*
X137545888Y-93530000D02*
X137334888Y-93530000D01*
X137613888Y-93490000D02*
X137334888Y-93490000D01*
X137677888Y-93450000D02*
X137334888Y-93450000D01*
X137737888Y-93410000D02*
X137334888Y-93410000D01*
X137769888Y-88445225D02*
X137769888Y-88945225D01*
X137793888Y-93370000D02*
X137334888Y-93370000D01*
X137847888Y-93330000D02*
X137334888Y-93330000D01*
X137898888Y-93290000D02*
X137334888Y-93290000D01*
X137946888Y-93250000D02*
X137334888Y-93250000D01*
X137993888Y-93210000D02*
X137334888Y-93210000D01*
X138019888Y-88695225D02*
X137519888Y-88695225D01*
X138037888Y-93170000D02*
X137334888Y-93170000D01*
X138079888Y-93130000D02*
X137334888Y-93130000D01*
X138119888Y-93090000D02*
X137334888Y-93090000D01*
X138158888Y-93050000D02*
X137334888Y-93050000D01*
X138195888Y-93010000D02*
X137334888Y-93010000D01*
X138230888Y-92970000D02*
X137334888Y-92970000D01*
X138264888Y-92930000D02*
X137334888Y-92930000D01*
X138297888Y-92890000D02*
X137334888Y-92890000D01*
X138329888Y-92850000D02*
X137334888Y-92850000D01*
X138359888Y-92810000D02*
X137334888Y-92810000D01*
X138388888Y-92770000D02*
X137334888Y-92770000D01*
X138416888Y-92730000D02*
X137334888Y-92730000D01*
X138443888Y-92690000D02*
X137334888Y-92690000D01*
X138469888Y-92650000D02*
X137334888Y-92650000D01*
X138493888Y-92610000D02*
X137334888Y-92610000D01*
X138517888Y-92570000D02*
X137334888Y-92570000D01*
X138540888Y-92530000D02*
X137334888Y-92530000D01*
X138562888Y-92490000D02*
X137334888Y-92490000D01*
X138583888Y-92450000D02*
X137334888Y-92450000D01*
X138603888Y-92410000D02*
X137334888Y-92410000D01*
X138623888Y-92370000D02*
X137334888Y-92370000D01*
X138641888Y-92330000D02*
X137334888Y-92330000D01*
X138659888Y-92290000D02*
X137334888Y-92290000D01*
X138676888Y-92250000D02*
X137334888Y-92250000D01*
X138692888Y-92210000D02*
X137334888Y-92210000D01*
X138707888Y-92170000D02*
X137334888Y-92170000D01*
X138722888Y-92130000D02*
X137334888Y-92130000D01*
X138736888Y-92090000D02*
X137334888Y-92090000D01*
X138749888Y-92050000D02*
X137334888Y-92050000D01*
X138761888Y-92010000D02*
X137334888Y-92010000D01*
X138773888Y-91970000D02*
X137334888Y-91970000D01*
X138784888Y-91930000D02*
X137334888Y-91930000D01*
X138795888Y-91890000D02*
X137334888Y-91890000D01*
X138804888Y-91850000D02*
X137334888Y-91850000D01*
X138813888Y-91810000D02*
X137334888Y-91810000D01*
X138822888Y-91770000D02*
X137334888Y-91770000D01*
X138830888Y-91730000D02*
X137334888Y-91730000D01*
X138837888Y-91690000D02*
X137334888Y-91690000D01*
X138843888Y-91650000D02*
X137334888Y-91650000D01*
X138849888Y-91610000D02*
X137334888Y-91610000D01*
X138854888Y-91570000D02*
X137334888Y-91570000D01*
X138859888Y-91530000D02*
X137334888Y-91530000D01*
X138863888Y-91490000D02*
X137334888Y-91490000D01*
X138866888Y-91450000D02*
X133722888Y-91450000D01*
X138869888Y-91410000D02*
X133719888Y-91410000D01*
X138871888Y-91370000D02*
X133717888Y-91370000D01*
X138873888Y-91330000D02*
X133715888Y-91330000D01*
X138874888Y-91250000D02*
X133714888Y-91250000D01*
X138874888Y-91290000D02*
X133714888Y-91290000D01*
X138914888Y-91250000D02*
G75*
G02*
X133674888Y-91250000I-2620000J0D01*
G01*
X133674888Y-91250000D02*
G75*
G02*
X138914888Y-91250000I2620000J0D01*
G01*
%TO.C,C1*%
X81807349Y-92470000D02*
X78830349Y-92470000D01*
X81807349Y-92510000D02*
X78838349Y-92510000D01*
X81807349Y-92550000D02*
X78845349Y-92550000D01*
X81807349Y-92590000D02*
X78854349Y-92590000D01*
X81807349Y-92630000D02*
X78862349Y-92630000D01*
X81807349Y-92670000D02*
X78871349Y-92670000D01*
X81807349Y-92710000D02*
X78880349Y-92710000D01*
X81807349Y-92750000D02*
X78890349Y-92750000D01*
X81807349Y-92790000D02*
X78900349Y-92790000D01*
X81807349Y-92830000D02*
X78911349Y-92830000D01*
X81807349Y-92870000D02*
X78922349Y-92870000D01*
X81807349Y-92910000D02*
X78934349Y-92910000D01*
X81807349Y-92950000D02*
X78946349Y-92950000D01*
X81807349Y-92990000D02*
X78958349Y-92990000D01*
X81807349Y-93030000D02*
X78971349Y-93030000D01*
X81807349Y-93070000D02*
X78984349Y-93070000D01*
X81807349Y-93110000D02*
X78998349Y-93110000D01*
X81807349Y-93150000D02*
X79012349Y-93150000D01*
X81807349Y-93190000D02*
X79027349Y-93190000D01*
X81807349Y-93230000D02*
X79042349Y-93230000D01*
X81807349Y-93270000D02*
X79058349Y-93270000D01*
X81807349Y-93310000D02*
X79074349Y-93310000D01*
X81807349Y-93350000D02*
X79090349Y-93350000D01*
X81807349Y-93390000D02*
X79107349Y-93390000D01*
X81807349Y-93430000D02*
X79125349Y-93430000D01*
X81807349Y-93470000D02*
X79143349Y-93470000D01*
X81807349Y-93510000D02*
X79162349Y-93510000D01*
X81807349Y-93550000D02*
X79181349Y-93550000D01*
X81807349Y-93590000D02*
X79201349Y-93590000D01*
X81807349Y-93630000D02*
X79221349Y-93630000D01*
X81807349Y-93670000D02*
X79242349Y-93670000D01*
X81807349Y-93710000D02*
X79263349Y-93710000D01*
X81807349Y-93750000D02*
X79285349Y-93750000D01*
X81807349Y-93790000D02*
X79308349Y-93790000D01*
X81807349Y-93830000D02*
X79331349Y-93830000D01*
X81807349Y-93870000D02*
X79354349Y-93870000D01*
X81807349Y-93910000D02*
X79379349Y-93910000D01*
X81807349Y-93950000D02*
X79404349Y-93950000D01*
X81807349Y-93990000D02*
X79429349Y-93990000D01*
X81807349Y-94030000D02*
X79455349Y-94030000D01*
X81807349Y-94070000D02*
X79482349Y-94070000D01*
X81807349Y-94110000D02*
X79510349Y-94110000D01*
X81807349Y-94150000D02*
X79538349Y-94150000D01*
X81807349Y-94190000D02*
X79567349Y-94190000D01*
X81807349Y-94230000D02*
X79597349Y-94230000D01*
X81807349Y-94270000D02*
X79628349Y-94270000D01*
X81807349Y-94310000D02*
X79659349Y-94310000D01*
X81807349Y-94350000D02*
X79691349Y-94350000D01*
X81807349Y-94390000D02*
X79724349Y-94390000D01*
X81807349Y-94430000D02*
X79758349Y-94430000D01*
X81807349Y-94470000D02*
X79792349Y-94470000D01*
X81807349Y-94510000D02*
X79828349Y-94510000D01*
X83380349Y-95830000D02*
X82314349Y-95830000D01*
X83615349Y-95790000D02*
X82079349Y-95790000D01*
X83794349Y-95750000D02*
X81900349Y-95750000D01*
X83944349Y-95710000D02*
X81750349Y-95710000D01*
X84075349Y-95670000D02*
X81619349Y-95670000D01*
X84193349Y-95630000D02*
X81501349Y-95630000D01*
X84300349Y-95590000D02*
X81394349Y-95590000D01*
X84399349Y-95550000D02*
X81295349Y-95550000D01*
X84491349Y-95510000D02*
X81203349Y-95510000D01*
X84578349Y-95470000D02*
X81116349Y-95470000D01*
X84660349Y-95430000D02*
X81034349Y-95430000D01*
X84737349Y-95390000D02*
X80957349Y-95390000D01*
X84811349Y-95350000D02*
X80883349Y-95350000D01*
X84881349Y-95310000D02*
X80813349Y-95310000D01*
X84948349Y-95270000D02*
X80746349Y-95270000D01*
X85012349Y-95230000D02*
X80682349Y-95230000D01*
X85074349Y-95190000D02*
X80620349Y-95190000D01*
X85134349Y-95150000D02*
X80560349Y-95150000D01*
X85162349Y-87340302D02*
X85162349Y-88140302D01*
X85191349Y-95110000D02*
X80503349Y-95110000D01*
X85247349Y-95070000D02*
X80447349Y-95070000D01*
X85300349Y-95030000D02*
X80394349Y-95030000D01*
X85352349Y-94990000D02*
X80342349Y-94990000D01*
X85402349Y-94950000D02*
X80292349Y-94950000D01*
X85451349Y-94910000D02*
X80243349Y-94910000D01*
X85498349Y-94870000D02*
X80196349Y-94870000D01*
X85543349Y-94830000D02*
X80151349Y-94830000D01*
X85562349Y-87740302D02*
X84762349Y-87740302D01*
X85588349Y-94790000D02*
X80106349Y-94790000D01*
X85631349Y-94750000D02*
X80063349Y-94750000D01*
X85673349Y-94710000D02*
X80021349Y-94710000D01*
X85714349Y-94670000D02*
X79980349Y-94670000D01*
X85753349Y-94630000D02*
X79941349Y-94630000D01*
X85792349Y-94590000D02*
X79902349Y-94590000D01*
X85829349Y-94550000D02*
X79865349Y-94550000D01*
X85866349Y-94510000D02*
X83887349Y-94510000D01*
X85902349Y-94470000D02*
X83887349Y-94470000D01*
X85936349Y-94430000D02*
X83887349Y-94430000D01*
X85970349Y-94390000D02*
X83887349Y-94390000D01*
X86003349Y-94350000D02*
X83887349Y-94350000D01*
X86035349Y-94310000D02*
X83887349Y-94310000D01*
X86066349Y-94270000D02*
X83887349Y-94270000D01*
X86097349Y-94230000D02*
X83887349Y-94230000D01*
X86127349Y-94190000D02*
X83887349Y-94190000D01*
X86156349Y-94150000D02*
X83887349Y-94150000D01*
X86184349Y-94110000D02*
X83887349Y-94110000D01*
X86212349Y-94070000D02*
X83887349Y-94070000D01*
X86239349Y-94030000D02*
X83887349Y-94030000D01*
X86265349Y-93990000D02*
X83887349Y-93990000D01*
X86290349Y-93950000D02*
X83887349Y-93950000D01*
X86315349Y-93910000D02*
X83887349Y-93910000D01*
X86340349Y-93870000D02*
X83887349Y-93870000D01*
X86363349Y-93830000D02*
X83887349Y-93830000D01*
X86386349Y-93790000D02*
X83887349Y-93790000D01*
X86409349Y-93750000D02*
X83887349Y-93750000D01*
X86431349Y-93710000D02*
X83887349Y-93710000D01*
X86452349Y-93670000D02*
X83887349Y-93670000D01*
X86473349Y-93630000D02*
X83887349Y-93630000D01*
X86493349Y-93590000D02*
X83887349Y-93590000D01*
X86513349Y-93550000D02*
X83887349Y-93550000D01*
X86532349Y-93510000D02*
X83887349Y-93510000D01*
X86551349Y-93470000D02*
X83887349Y-93470000D01*
X86569349Y-93430000D02*
X83887349Y-93430000D01*
X86587349Y-93390000D02*
X83887349Y-93390000D01*
X86604349Y-93350000D02*
X83887349Y-93350000D01*
X86620349Y-93310000D02*
X83887349Y-93310000D01*
X86636349Y-93270000D02*
X83887349Y-93270000D01*
X86652349Y-93230000D02*
X83887349Y-93230000D01*
X86667349Y-93190000D02*
X83887349Y-93190000D01*
X86682349Y-93150000D02*
X83887349Y-93150000D01*
X86696349Y-93110000D02*
X83887349Y-93110000D01*
X86710349Y-93070000D02*
X83887349Y-93070000D01*
X86723349Y-93030000D02*
X83887349Y-93030000D01*
X86736349Y-92990000D02*
X83887349Y-92990000D01*
X86748349Y-92950000D02*
X83887349Y-92950000D01*
X86760349Y-92910000D02*
X83887349Y-92910000D01*
X86772349Y-92870000D02*
X83887349Y-92870000D01*
X86783349Y-92830000D02*
X83887349Y-92830000D01*
X86794349Y-92790000D02*
X83887349Y-92790000D01*
X86804349Y-92750000D02*
X83887349Y-92750000D01*
X86814349Y-92710000D02*
X83887349Y-92710000D01*
X86823349Y-92670000D02*
X83887349Y-92670000D01*
X86832349Y-92630000D02*
X83887349Y-92630000D01*
X86840349Y-92590000D02*
X83887349Y-92590000D01*
X86849349Y-92550000D02*
X83887349Y-92550000D01*
X86856349Y-92510000D02*
X83887349Y-92510000D01*
X86864349Y-92470000D02*
X83887349Y-92470000D01*
X86870349Y-92430000D02*
X78824349Y-92430000D01*
X86877349Y-92390000D02*
X78817349Y-92390000D01*
X86883349Y-92350000D02*
X78811349Y-92350000D01*
X86889349Y-92310000D02*
X78805349Y-92310000D01*
X86894349Y-92270000D02*
X78800349Y-92270000D01*
X86899349Y-92230000D02*
X78795349Y-92230000D01*
X86903349Y-92190000D02*
X78791349Y-92190000D01*
X86908349Y-92150000D02*
X78786349Y-92150000D01*
X86911349Y-92110000D02*
X78783349Y-92110000D01*
X86915349Y-92070000D02*
X78779349Y-92070000D01*
X86917349Y-92030000D02*
X78777349Y-92030000D01*
X86920349Y-91990000D02*
X78774349Y-91990000D01*
X86922349Y-91950000D02*
X78772349Y-91950000D01*
X86924349Y-91910000D02*
X78770349Y-91910000D01*
X86925349Y-91870000D02*
X78769349Y-91870000D01*
X86926349Y-91830000D02*
X78768349Y-91830000D01*
X86927349Y-91750000D02*
X78767349Y-91750000D01*
X86927349Y-91790000D02*
X78767349Y-91790000D01*
X86967349Y-91750000D02*
G75*
G02*
X78727349Y-91750000I-4120000J0D01*
G01*
X78727349Y-91750000D02*
G75*
G02*
X86967349Y-91750000I4120000J0D01*
G01*
%TO.C,R2*%
X159710000Y-108764000D02*
X159710000Y-108920000D01*
X159710000Y-111080000D02*
X159710000Y-111236000D01*
X159710000Y-108764484D02*
G75*
G02*
X162941437Y-108920000I1560000J-1235516D01*
G01*
X160229039Y-108920000D02*
G75*
G02*
X162310961Y-108920000I1040961J-1080000D01*
G01*
X162310961Y-111080000D02*
G75*
G02*
X160229039Y-111080000I-1040961J1080000D01*
G01*
X162941437Y-111080000D02*
G75*
G02*
X159710000Y-111235516I-1671437J1080000D01*
G01*
%TO.C,J2*%
X161120000Y-88620000D02*
X162500000Y-88620000D01*
X161120000Y-90000000D02*
X161120000Y-88620000D01*
X161120000Y-91270000D02*
X161120000Y-93920000D01*
X161120000Y-91270000D02*
X163880000Y-91270000D01*
X161120000Y-93920000D02*
X163880000Y-93920000D01*
X163880000Y-91270000D02*
X163880000Y-93920000D01*
%TO.C,U1*%
X99390000Y-86690000D02*
X109610000Y-86690000D01*
X99390000Y-88070000D02*
X109610000Y-88070000D01*
X99390000Y-91310000D02*
X99390000Y-86690000D01*
X102650000Y-86690000D02*
X102650000Y-88070000D01*
X106350000Y-86690000D02*
X106350000Y-88070000D01*
X109610000Y-86690000D02*
X109610000Y-91310000D01*
X109610000Y-91310000D02*
X99390000Y-91310000D01*
%TO.C,J1*%
X67620000Y-88620000D02*
X69000000Y-88620000D01*
X67620000Y-90000000D02*
X67620000Y-88620000D01*
X67620000Y-91270000D02*
X67620000Y-93920000D01*
X67620000Y-91270000D02*
X70380000Y-91270000D01*
X67620000Y-93920000D02*
X70380000Y-93920000D01*
X70380000Y-91270000D02*
X70380000Y-93920000D01*
%TO.C,R1*%
X136500000Y-100960000D02*
X136500000Y-101730000D01*
X136500000Y-109040000D02*
X136500000Y-108270000D01*
X137870000Y-101730000D02*
X135130000Y-101730000D01*
X135130000Y-108270000D01*
X137870000Y-108270000D01*
X137870000Y-101730000D01*
%TO.C,C2*%
X99880000Y-103130000D02*
X105120000Y-103130000D01*
X99880000Y-103467000D02*
X99880000Y-103130000D01*
X99880000Y-105870000D02*
X99880000Y-105533000D01*
X105120000Y-103130000D02*
X105120000Y-103467000D01*
X105120000Y-105533000D02*
X105120000Y-105870000D01*
X105120000Y-105870000D02*
X99880000Y-105870000D01*
%TD*%
M02*
